<svg width="26" height="27" viewBox="0 0 26 27" fill="none" xmlns="http://www.w3.org/2000/svg">
<g filter="url(#filter0_d_46_754)">
<path d="M19.4583 1.66667H6.54166C5.50832 1.66667 4.66666 2.50834 4.66666 3.54167V16.4583C4.66666 17.4917 5.50832 18.3333 6.54166 18.3333H19.4583C20.4917 18.3333 21.3333 17.4917 21.3333 16.4583V3.54167C21.3333 2.50834 20.4917 1.66667 19.4583 1.66667ZM6.54166 2.91667H19.4583C19.8025 2.91667 20.0833 3.19751 20.0833 3.54167V11.605L16.8683 8.39001C16.7517 8.27334 16.5933 8.20667 16.4267 8.20667H16.4242C16.2575 8.20667 16.0967 8.27334 15.9808 8.39334L12.3833 12.0467L10.8725 10.5417C10.7558 10.425 10.5975 10.3583 10.4308 10.3583C10.27 10.3333 10.1017 10.425 9.98499 10.5475L5.91666 14.7017V3.54167C5.91666 3.19751 6.19749 2.91667 6.54166 2.91667ZM5.92166 16.4833L10.4367 11.8717L15.6717 17.0833H6.54166C6.20666 17.0833 5.93582 16.815 5.92166 16.4833ZM19.4583 17.0833H17.4417L13.2692 12.9275L16.4292 9.71917L20.0833 13.3725V16.4583C20.0833 16.8025 19.8025 17.0833 19.4583 17.0833Z" fill="#1D9BF0"/>
<path d="M10.39 8.20918C11.0997 8.20918 11.675 7.63386 11.675 6.92418C11.675 6.21449 11.0997 5.63918 10.39 5.63918C9.68029 5.63918 9.10498 6.21449 9.10498 6.92418C9.10498 7.63386 9.68029 8.20918 10.39 8.20918Z" fill="#1D9BF0"/>
</g>
<defs>
<filter id="filter0_d_46_754" x="-1" y="0" width="28" height="28" filterUnits="userSpaceOnUse" color-interpolation-filters="sRGB">
<feFlood flood-opacity="0" result="BackgroundImageFix"/>
<feColorMatrix in="SourceAlpha" type="matrix" values="0 0 0 0 0 0 0 0 0 0 0 0 0 0 0 0 0 0 127 0" result="hardAlpha"/>
<feOffset dy="4"/>
<feGaussianBlur stdDeviation="2"/>
<feComposite in2="hardAlpha" operator="out"/>
<feColorMatrix type="matrix" values="0 0 0 0 0 0 0 0 0 0 0 0 0 0 0 0 0 0 0.25 0"/>
<feBlend mode="normal" in2="BackgroundImageFix" result="effect1_dropShadow_46_754"/>
<feBlend mode="normal" in="SourceGraphic" in2="effect1_dropShadow_46_754" result="shape"/>
</filter>
</defs>
</svg>
